# xmcd CD database file
#
# Track frame offsets:
#	150
#	22113
#	45830
#	65960
#	85119
#	111129
#	131672
#	162085
#	183688
#	205093
#	230099
#
# Disc length: 3509 seconds
#
# Revision: 0
# Processed by: cddbd v1.5.2PL0 Copyright (c) Steve Scherf et al.
# Submitted via: CDex 2.14
#
DISCID=970db30b
DTITLE=Varios Artistas - Los Mejores Temas De La Historia Del Jazz - 2
DYEAR=2014
DGENRE=Jazz
TTITLE0=The Bill Evans Trio - My Foolish Heart
TTITLE1=Chick Corea - Fingerprint
TTITLE2=Keith Jarrett - Treasure Island
TTITLE3=Stan Getz  Featuring Astrud Gilberto - Corcovado - SACD
TTITLE4=Coleman Hawkins - Desafinado
TTITLE5=Ben Webster - Time After Time
TTITLE6=Art Blakey And The Jazz Messengers - Alamode
TTITLE7=Charles Mingus - II B
TTITLE8=Herbie Hancock - It Ain't Necessarily So
TTITLE9=Roy Hargrove Big Band - Ms. Garvey, Ms. Garvey
TTITLE10=Dexter Gordon - Blues Walk
EXTD=YEAR: 2014
EXTT0=
EXTT1=
EXTT2=
EXTT3=
EXTT4=
EXTT5=
EXTT6=
EXTT7=
EXTT8=
EXTT9=
EXTT10=
PLAYORDER=
